<?xml version="1.0" encoding="UTF-8"?>

<svg width="1024" height="1024" version="1.1" viewBox="0 0 270.93 270.93" xmlns="http://www.w3.org/2000/svg">
    <path d="m74.727 212.15c-1.7405-2.8163-4.871-12.771-4.2069-13.377 0.4388-0.40087 5.4353-2.5429 11.103-4.76 12.206-4.7745 33.154-15.49 44.301-22.661 6.1688-3.9686 7.797-5.536 7.2353-6.9654-1.6027-4.0787-7.948-27.091-8.6594-31.405-0.91793-5.5659 0.99928-5.4205-26.055-1.976-11.332 1.4428-20.759 2.4682-20.948 2.2786-0.58977-0.58976-2.3066-14.028-1.8505-14.484 0.23745-0.23745 10.344-1.6631 22.46-3.1682 12.115-1.5051 22.096-2.7935 22.179-2.8632 0.31385-0.26381-2.9319-20.626-3.3553-21.05-0.24412-0.24412-7.1894 0.28558-15.434 1.1771-8.2446 0.89153-15.203 1.4183-15.463 1.1706-1.1305-1.0769-1.9985-13.989-0.98257-14.617 0.59497-0.36771 7.6946-1.2877 15.777-2.0444l14.695-1.3758-0.66796-5.5592c-0.36738-3.0575-0.67968-7.2677-0.694-9.3559-0.0461-6.7138-0.0912-6.7273-16.886-5.0433-8.3093 0.83317-15.431 1.2104-15.826 0.83828s-0.88339-3.8424-1.0848-7.7118c-0.29264-5.6221-0.03935-7.0791 1.261-7.254 0.89495-0.12037 8.1076-0.79982 16.028-1.5099l14.401-1.291-0.73614-17.219-0.73615-17.219h15.274l0.78804 16.272 0.78805 16.272 3.4028-0.04541c1.8715-0.02497 14.874-1.1825 28.895-2.5724 14.021-1.3898 25.816-2.2237 26.211-1.853 0.39523 0.3707 0.88339 3.847 1.0848 7.7252l0.36619 7.0511-58.322 5.3677 0.72264 10.28c0.39745 5.6542 0.89381 10.452 1.103 10.661 0.2092 0.2092 11.542-0.81316 25.184-2.2719 13.642-1.4588 25.017-2.4509 25.277-2.2048 1.046 0.99005 2.0062 13.982 1.0758 14.557-0.54368 0.33601-11.854 1.7244-25.134 3.0853-13.28 1.3609-24.29 2.6183-24.467 2.7942-0.3713 0.36925 2.7296 20.164 3.2385 20.673 0.18605 0.18605 13.274-1.2892 29.085-3.2784 15.81-1.9892 28.898-3.4647 29.084-3.2789 0.58566 0.58566 2.2962 14.025 1.8428 14.478-0.23787 0.23788-12.897 1.9952-28.132 3.9051-15.235 1.9099-28.035 3.8076-28.444 4.2172-0.87625 0.87625 5.7855 26.847 7.2728 28.353 1.088 1.1017 3.2566-0.70081 17.866-14.849l8.7102-8.4354 10.712 10.876-7.0151 7.1291c-3.8583 3.921-10.798 10.341-15.422 14.267-4.6239 3.9259-8.4071 7.6945-8.4071 8.3747s2.4644 4.9906 5.4764 9.5786c5.2935 8.0633 12.107 13.796 16.397 13.796 4.3059 0 8.3065-8.146 9.3914-19.123l0.73676-7.4546 7.0512 0.38165c3.8781 0.20991 7.3851 0.58497 7.7933 0.83347 1.7261 1.0508-1.9986 20.363-5.1125 26.509-2.7074 5.3429-8.7962 11.363-13.177 13.029-11.81 4.49-27.521-4.7161-37.592-22.027l-4.1542-7.1407-9.4057 5.9583c-10.846 6.8704-33.679 18.261-46.264 23.079-9.9142 3.7954-8.9694 3.5523-9.6331 2.4784zm77.263-190.04-9.366-9.3942 9.7258-11.289 5.157 4.3176c2.8363 2.3747 7.418 6.9643 10.182 10.199l5.0247 5.8815-11.357 9.679z" stroke-width="1.0848"/>
</svg>
