<?xml version="1.0" encoding="UTF-8"?>

<svg width="1024" height="1024" version="1.1" viewBox="0 0 270.93 270.93" xmlns="http://www.w3.org/2000/svg">
    <path d="m61.115 214.35c-1.7816-2.8826-4.9257-12.839-4.2526-13.466 0.4388-0.40892 8.1202-3.5336 17.07-6.9436 20.742-7.9034 33.671-14.541 39.045-20.044l4.2447-4.347h-59.019v-15.187h32.428c36.536 0 33.238 0.8917 34.438-9.313l0.69038-5.8741h-54.538v-15.187h55.029l0.68985-5.033c0.37941-2.7681 0.68984-6.1852 0.68984-7.5935v-2.5606h-52.07v-49.9h26.035v-17.357h-34.713v-15.187h34.713v-19.526h15.187v19.526h36.883v-19.526h15.187v19.526h43.392v15.187h-43.392v17.357h26.035v49.9h-52.07v15.151l56.952 0.57842v14.102l-28.711 0.28968c-15.791 0.15931-29.034 0.64746-29.429 1.0848-0.39476 0.43731-1.0453 3.8461-1.4456 7.5751l-0.72787 6.78h72.789v15.187l-61.291 0.01 3.2544 2.6315c9.9768 8.0674 29.113 17.576 49.49 24.59 5.5952 1.9261 10.296 3.5849 10.447 3.6862 0.32859 0.22081-3.6997 12.08-4.5959 13.53-1.1785 1.9069-34.664-10.981-47.101-18.128-9.3848-5.3932-18.004-11.557-23.79-17.013-5.4114-5.1023-5.8603-5.3172-6.9217-3.3138-0.62424 1.1783-4.4245 5.4047-8.445 9.3921-5.9877 5.9383-9.5434 8.322-19.656 13.177-6.7901 3.2599-18.204 8.1382-25.363 10.841-7.1596 2.7024-13.822 5.2266-14.806 5.6095-0.98376 0.38288-2.0413 0.28736-2.3501-0.21225zm66.514-130.5v-9.7631h-36.883v19.526h36.883zm52.07 0v-9.7631h-36.883v19.526h36.883zm-26.035-33.629v-8.6783h-36.883v17.357h36.883z" stroke-width="1.0848"/>
</svg>
