<?xml version="1.0" encoding="UTF-8"?>

<svg width="1024" height="1024" version="1.1" viewBox="0 0 270.93 270.93" xmlns="http://www.w3.org/2000/svg">
    <path d="m74.624 121.17-3.8179-11.119-24.17-0.61345v-14.766l33.9-0.70863c62.561-1.3078 91.732-5.0234 132.22-16.841l7.1944-2.1001 4.3493 14.418-10.454 3.3825c-11.436 3.7001-11.1 4.0754-11.5 3.7427-1.2709-1.0569 12.451 4.6521 12.253 5.1089-0.19765 0.45674-3.0442 7.5281-6.3257 15.714l-5.9664 14.884-8.3803 9e-3c-8.2516 9e-3 -8.3656-0.0288-7.4262-2.4321 0.52475-1.3424 3.6857-9.1246 7.0243-17.294 3.3386-8.169 6.0702-15.041 6.0702-15.27s-5.0036 0.71596-11.119 2.1013c-12.219 2.7679-38.374 6.8534-43.934 6.8627-1.9391 3e-3 -3.5256 0.39812-3.5256 0.87753s1.7086 5.945 3.7968 12.146c2.0882 6.2008 3.7968 11.666 3.7968 12.146 0 0.47941-3.5558 0.87165-7.9017 0.87165h-7.9017l-3.8258-11.662-4.6236-12.151-22.063 0.49568-15.399 0.7555 3.7375 10.325c2.0556 5.6788 3.7375 10.755 3.7375 11.28 0 0.52547-3.5832 0.95539-7.9627 0.95539h-7.9627z" stroke-width="1.0848"/>
</svg>
