<?xml version="1.0" encoding="UTF-8"?>

<svg width="1024" height="1024" version="1.1" viewBox="0 0 270.93 270.93" xmlns="http://www.w3.org/2000/svg">
    <path d="m103.16 193.99v-18.951l-8.1359 0.47753-0.61415-7.0512c-0.33779-3.8781-0.50015-7.2142-0.36079-7.4136 0.13935-0.19932 2.2463-0.62971 4.6821-0.95643l4.4288-0.59402v-136.36l2.4408-0.49771c1.3424-0.27374 7.3223-1.322 13.289-2.3295 14.3-2.4147 31.488-7.2698 42.636-12.043 4.9544-2.1214 9.167-3.68 9.3614-3.4635 0.84967 0.94606 6.0384 11.8 6.0384 12.632 0 3.129-34.755 14.651-54.511 18.072l-4.068 0.70439v22.682h53.155v15.187h-53.155v32.544h53.155v15.187h-53.155v36.078l7.7674-0.76538c7.066-0.69626 33.167-4.8423 41.912-6.6576l3.576-0.74229-0.32166 7.9653-0.32167 7.9652-3.7968 0.78048c-2.0882 0.42925-12.34 2.0534-22.781 3.6093s-20.57 3.0777-22.509 3.3818l-3.5256 0.55298v38.954h-15.187z" stroke-width="1.0848"/>
</svg>
