<?xml version="1.0" encoding="UTF-8"?>

<svg width="1024" height="1024" version="1.1" viewBox="0 0 270.93 270.93" xmlns="http://www.w3.org/2000/svg">
    <path d="m71.49 147.01v-64.003h62.918l-0.0238 53.968c-0.022 49.921-0.17246 54.296-2.0059 58.332-4.3675 9.6144-13.697 15.641-24.276 15.682l-6.2376 0.0238v-15.187h4.99c4.2286 0 5.5529-0.56283 8.6783-3.6883 3.6823-3.6823 3.6883-3.7053 3.6883-14.102v-10.414h-32.544v43.392h-15.187zm47.731-4.3392v-9.7631h-32.544v19.526h32.544zm0-34.713v-9.7631h-32.544v19.526h32.544zm34.713 95.462v-7.5935h22.998l7.3766-7.3766v-105.44h15.187l-0.0239 53.968c-0.0266 60.166 0.16013 58.547-7.6532 66.36-6.2716 6.2716-10.721 7.6262-25.138 7.6532l-12.746 0.0238zm-4.3392-69.427v-42.307h15.187v84.614h-15.187zm-81.974-66.348c-1.9876-4.1745-2.7345-6.8356-1.9891-7.0874 0.65644-0.2217 5.538-2.8786 10.848-5.9043 18.209-10.376 34.292-23.887 47.277-39.716 6.4014-7.804 6.492-7.8647 11.736-7.8647 5.2438 0 5.3344 0.06074 11.736 7.8647 12.985 15.83 29.067 29.34 47.277 39.716 5.3099 3.0256 10.191 5.6826 10.848 5.9043 1.4899 0.5032-4.651 13.772-6.3738 13.772-0.66113 0-5.4588-2.4408-10.662-5.424-5.2027-2.9832-9.6977-5.424-9.9888-5.424s-0.52934 1.9526-0.52934 4.3392v4.3392h-84.614v-4.3392c0-2.3865-0.2382-4.3392-0.52934-4.3392-0.29113 0-4.7861 2.4408-9.9888 5.424-5.2027 2.9832-10 5.424-10.662 5.424s-2.6342-3.0079-4.3847-6.6843zm96.076-14.726c-2.6849-2.1758-10.129-9.1719-16.543-15.547l-11.662-11.591-11.662 11.591c-6.4138 6.3751-13.858 13.371-16.543 15.547l-4.8816 3.9559h66.172z" stroke-width="1.0848"/>
</svg>
