<?xml version="1.0" encoding="UTF-8"?>

<svg width="1024" height="1024" version="1.1" viewBox="0 0 270.93 270.93" xmlns="http://www.w3.org/2000/svg">
    <path d="m160.82 187.48c0-19.7-0.1365-21.187-1.8984-20.681-1.0441 0.29993-5.3155 1.5262-9.4919 2.7251-21.607 6.2024-63.904 15.235-65.212 13.927-0.73518-0.73519-2.7518-13.993-2.2108-14.535 0.25702-0.25702 4.3048-1.052 8.995-1.7666l8.5277-1.2992 0.28162-52.338 0.28161-52.338h-13.038v-15.187h43.392v-19.526h-34.713v-15.187h84.614v15.187h-34.713v19.526h43.392v15.187h-13.018v147.53h-15.187zm-30.374-28.745c6.8613-1.8274 16.502-4.5411 21.425-6.0304l8.9495-2.7078v-15.056h-45.561v13.56c0 10.126 0.34343 13.559 1.356 13.558 0.7458-9.1e-4 6.9698-1.4968 13.831-3.3242zm30.374-49.829v-10.848h-45.561v21.696h45.561zm0-36.883v-10.848h-45.561v21.696h45.561z" stroke-width="1.0848"/>
</svg>
