<?xml version="1.0" encoding="UTF-8"?>

<svg width="1024" height="1024" version="1.1" viewBox="0 0 270.93 270.93" xmlns="http://www.w3.org/2000/svg">
    <path d="m58.973 164.68c-1.7077-3.5729-2.8958-6.6786-2.6402-6.9016 0.25554-0.22301 5.5903-3.0192 11.855-6.2138 14.177-7.2295 26.748-15.61 40.326-26.884l10.494-8.7136 9.9542 11.651-10.59 8.8616c-5.8243 4.8739-15.471 12.13-21.438 16.124-10.078 6.7474-31.649 18.572-33.879 18.572-0.53794 0-2.3753-2.9232-4.0829-6.4961zm137.22-0.20291c-12.473-10.05-26.453-19.527-39.533-26.798-6.5287-3.6293-12.387-6.7732-13.018-6.9864-1.4339-0.48455 4.7403-13.756 6.3997-13.756 2.0844 0 24.659 13.003 35.303 20.333 13.512 9.3064 29.289 21.865 29.289 23.314 0 1.7696-7.5739 10.602-9.0222 10.521-0.70586-0.0394-4.9445-3.0217-9.4193-6.6274zm-82.444-66.091c-7.3-6.5271-27.191-19.514-40.68-26.561-6.563-3.4286-12.142-6.4026-12.397-6.6088-0.79584-0.64223 5.685-13.367 6.8079-13.367 4.7195 0 46.035 25.645 56.288 34.938l5.1376 4.6568-10.275 11.307zm32.007-3.1331c-1.7077-3.5729-2.8958-6.6804-2.6402-6.9057 0.25555-0.22527 6.3225-3.3845 13.482-7.0206 15.489-7.866 26.553-15.026 36.879-23.864 4.1744-3.5729 7.9134-6.2963 8.3089-6.0519s2.7309 2.8474 5.1899 5.7843l4.4709 5.34-7.8982 6.6769c-4.344 3.6723-11.803 9.2861-16.577 12.475-8.6153 5.7562-35.041 20.062-37.058 20.062-0.57901 0-2.4499-2.9232-4.1576-6.4961z" stroke-width="1.0848"/>
</svg>
