<?xml version="1.0" encoding="UTF-8"?>

<svg width="1024" height="1024" version="1.1" viewBox="0 0 270.93 270.93" xmlns="http://www.w3.org/2000/svg">
    <path d="m32.944 153.48c-1.7077-3.5729-2.8958-6.6887-2.6402-6.924 0.25554-0.23532 3.992-2.1938 8.3031-4.3522 10.356-5.1848 26.492-16.199 39.892-27.231 13.796-11.358 36.508-34.796 42.849-44.22l4.8816-7.2547h18.441l4.8816 7.2547c5.7242 8.5069 27.887 31.719 40.521 42.438 12.136 10.297 30.043 22.669 40.956 28.298 5.0064 2.582 9.3115 4.8746 9.5671 5.0946 0.7886 0.679-5.6785 13.392-6.8125 13.392-2.0568 0-19.789-10.116-30.535-17.42-21.075-14.324-45.429-36.524-60.167-54.844-3.7844-4.7043-7.222-8.5532-7.6391-8.5532-0.41713 0-3.285 3.173-6.3731 7.0511-14.697 18.457-42.709 43.849-63.851 57.88-11.143 7.3953-26.058 15.844-28.015 15.87-0.63609 9e-3 -2.5537-2.908-4.2614-6.4809z" stroke-width="1.0848"/>
</svg>
