<?xml version="1.0" encoding="UTF-8"?>

<svg width="1024" height="1024" version="1.1" viewBox="0 0 270.93 270.93" xmlns="http://www.w3.org/2000/svg">
    <path d="m38.649 187.56-5.6339-4.9219 9.5203-11.573c11.434-13.9 14.905-18.943 19.915-28.93 4.1038-8.1815 9.5722-24.378 11.628-34.442l1.2744-6.2376h14.766l2.4329 10.577c1.3381 5.8172 3.1563 12.399 4.0405 14.625l1.6076 4.0486 8.1569-5.6758c25.819-17.965 58.533-47.996 77.677-71.306l9.3548-11.39-144.22-0.55777v-15.186l160.01 0.55638 6.0942 11.372-9.7271 12.756c-24.109 31.615-54.517 60.883-87.297 84.024-6.0722 4.2867-11.253 7.9537-11.512 8.1488-1.0187 0.76594 7.8306 8.7213 13.572 12.201 17.894 10.845 48.341 16.679 94.533 18.115l23.085 0.71746v15.176l-24.679-0.66082c-69.643-1.8648-105.88-14.176-123.93-42.101-2.4289-3.7579-4.6973-7.9528-5.0409-9.3219-0.65777-2.6208-2.5592-3.4571-2.5592-1.1257 0 2.893-10.925 23.409-16.315 30.638-4.9725 6.669-20.542 25.573-20.956 25.445-0.0846-0.0263-2.6891-2.2626-5.7878-4.9696z" stroke-width="1.0848"/>
</svg>
