<?xml version="1.0" encoding="UTF-8"?>

<svg width="1024" height="1024" version="1.1" viewBox="0 0 270.93 270.93" xmlns="http://www.w3.org/2000/svg">
    <path d="m83.905 149.25c-0.81321-1.3424-5.0384-8.7868-9.3892-16.543-9.8629-17.582-20.048-33.122-28.878-44.06l-6.7974-8.4194 11.603-9.9125 6.1195 7.3304c13.051 15.633 43.03 64.65 41.277 67.488-0.66449 1.0752-10.615 6.5574-11.902 6.5574-0.3044 0-1.2188-1.0984-2.032-2.4408zm99.84-1.0848c-2.8041-1.9391-5.1032-3.973-5.1091-4.5199-5e-3 -0.54685 3.3389-6.1606 7.4329-12.475 9.605-14.814 18.91-31.093 26.717-46.737 3.4238-6.8613 6.376-12.641 6.5606-12.844 0.18455-0.20305 3.312 0.96657 6.9499 2.5992 7.7358 3.4716 7.7386 2.4503-0.049 18.021-11.251 22.496-33.765 59.481-36.207 59.481-0.65793 0-3.4905-1.5865-6.2946-3.5256z" stroke-width="1.0848"/>
</svg>
