<?xml version="1.0" encoding="UTF-8"?>

<svg width="1024" height="1024" version="1.1" viewBox="0 0 270.93 270.93" xmlns="http://www.w3.org/2000/svg">
    <path d="m114 163.03c-2.834-1.8535-5.1507-3.9224-5.1481-4.5976 3e-3 -0.67519 1.4938-3.4243 3.3139-6.1092 12.762-18.826 16.153-35.353 16.191-78.919l0.0172-19.797h75.935v88.085l3.6883 3.6883c4.6512 4.6512 7.4984 4.6512 12.15 0l3.6883-3.6883v-27.337h15.187l-0.0239 14.916c-0.0268 16.784-1.1551 20.809-7.6532 27.308-10.087 10.087-24.46 10.087-34.546 0-7.5436-7.5436-7.6266-8.0869-7.6532-50.088l-0.0238-37.697h-45.231l-0.66994 23.052c-0.74877 25.765-2.6309 37.478-8.122 50.547-3.9552 9.4137-12.885 24.037-14.667 24.019-0.70341-7e-3 -3.5977-1.5293-6.4317-3.3828zm-81.017-9.1322c-0.7766-3.9071-1.2323-7.2368-1.0126-7.3993 0.21967-0.16257 3.0843-0.87818 6.3657-1.5903 3.2815-0.71209 11.214-2.8154 17.628-4.674l11.662-3.3793v-63.722h-26.035v-15.187h71.596v15.187h-30.374v58.418l6.2376-2.4737c3.4307-1.3605 9.2738-3.765 12.985-5.3434 3.711-1.5783 6.9394-2.8697 7.1742-2.8697 0.77956 0 6.353 13.173 5.8052 13.721-1.3193 1.3193-21.83 9.606-34.788 14.055-14.179 4.8682-40.903 12.351-44.132 12.358-1.2267 2e-3 -2.0922-1.9726-3.1114-7.1003zm127.01-31.709c-6.6506-10.011-12.092-18.747-12.092-19.413 0-1.283 9.7248-7.9465 11.597-7.9465 1.2515 0 25.286 35.753 25.286 37.615 0 1.283-9.7248 7.9465-11.597 7.9465-0.60591 0-6.5431-8.1907-13.194-18.202z" stroke-width="1.0848"/>
</svg>
