<?xml version="1.0" encoding="UTF-8"?>

<svg width="1024" height="1024" version="1.1" viewBox="0 0 270.93 270.93" xmlns="http://www.w3.org/2000/svg">
    <path d="m32.411 129.3v-7.5935h73.766v-43.392h15.187v43.392h28.205v-43.392h15.187v43.479l17.614-0.63013 6.8435-12.306c3.7639-6.7682 8.187-15.555 9.8292-19.526 1.6421-3.9713 3.298-7.5962 3.6798-8.0553 0.63313-0.76146 11.345 2.9543 13.309 4.6167 1.0885 0.92125-4.4702 14.326-10.617 25.602-2.6737 4.905-4.8613 9.2092-4.8613 9.5648 0 0.35564 8.5427 0.64662 18.984 0.64662h18.984v15.187h-206.11zm29.72-27.003-7.7052-15.03 5.9864-3.4384c3.2925-1.8911 6.5469-3.2234 7.2319-2.9605 1.2421 0.47664 15.752 27.782 15.752 29.643 0 0.93222-11.109 6.8787-12.77 6.8358-0.43426-0.0113-4.2569-6.7838-8.4947-15.05z" stroke-width="1.0848"/>
</svg>
