<?xml version="1.0" encoding="UTF-8"?>

<svg width="1024" height="1024" version="1.1" viewBox="0 0 270.93 270.93" xmlns="http://www.w3.org/2000/svg">
    <path d="m33.609 184.76c-1.8521-2.8862-3.3675-5.7272-3.3675-6.3131s4.2714-3.9453 9.4919-7.4652c9.3294-6.2902 37.264-32.848 42.459-40.366l2.4362-3.5256h-43.539v-15.15l54.782-0.57964 5.1528-8.5942c2.834-4.7268 5.1528-8.9982 5.1528-9.4919 0-0.49376-12.692-0.89775-28.205-0.89775h-28.205v-15.155l64.545-0.57468 3.4739-8.6783c1.9106-4.7731 3.4972-9.0444 3.5256-9.4919 0.0284-0.44748-16.057-0.81359-35.746-0.81359h-35.798v-15.187h37.895c35.15 0 37.936-0.13748 38.463-1.8984 0.31264-1.0441 1.1279-5.1934 1.8116-9.2207s1.5192-7.3223 1.8566-7.3223 3.7478 0.54584 7.5789 1.213l6.9655 1.213-0.60999 3.3974c-0.33549 1.8686-0.92955 5.472-1.3201 8.0077l-0.71013 4.6104h79.467v15.162l-83.62 0.56788-3.2087 9.1686c-1.7648 5.0427-3.2087 9.3141-3.2087 9.4919 0 0.17783 20.258 0.32332 45.019 0.32332h45.019v15.187h-28.205c-15.513 0-28.205 0.40399-28.205 0.89775 0 0.49376 2.3187 4.7651 5.1528 9.4919l5.1528 8.5942 54.782 0.57964v15.15h-43.539l2.4362 3.5256c5.1956 7.5188 33.13 34.076 42.459 40.366 5.2206 3.5199 9.4919 6.8792 9.4919 7.4652 0 1.9536-6.7149 11.561-8.0803 11.561-0.73996 0-5.9368-3.2635-11.548-7.2522-12.121-8.6156-38.012-34.074-47.511-46.716l-6.7239-8.9495h-62.723l-6.7239 8.9495c-9.4986 12.643-35.389 38.101-47.511 46.716-5.6117 3.9887-10.808 7.2522-11.548 7.2522-0.73996 0-2.8607-2.3615-4.7128-5.2477zm118.38-82.598-5.1325-9.7411h-22.781l-10.265 19.482h43.311z" stroke-width="1.0848"/>
</svg>
