<?xml version="1.0" encoding="UTF-8"?>

<svg width="1024" height="1024" version="1.1" viewBox="0 0 270.93 270.93" xmlns="http://www.w3.org/2000/svg">
    <path d="m76.981 203.79c-1.8411-2.9922-3.3474-5.8295-3.3474-6.3053 0-0.47577 4.5154-3.8333 10.034-7.4611 11.775-7.74 20.214-14.911 26.908-22.863 4.961-5.894 11.152-16.93 12.456-22.204l0.73764-2.9832h-43.627v-58.579h47.731v-17.357h-30.23l-0.34325-2.7647-0.34326-2.7647-6.9918 4.9343c-3.8455 2.7139-7.5778 4.9343-8.2941 4.9343-1.3509 0-8.0372-9.6527-8.0372-11.603 0-0.60909 2.8069-2.9577 6.2376-5.2192 14.253-9.3957 27.899-22.522 42.563-40.943l5.8288-7.3223h14.408l5.8288 7.3223c14.664 18.421 28.309 31.547 42.563 40.943 3.4306 2.2615 6.2376 4.6101 6.2376 5.2192 0 1.9502-6.6863 11.603-8.0372 11.603-0.71624 0-4.4486-2.2204-8.2941-4.9343l-6.9918-4.9343-0.6865 5.5294h-30.23v17.357h47.731v58.579h-22.365c-25.964 0-24.426-1.1827-16.501 12.691 9.1014 15.932 22.581 29.085 38.261 37.332 3.6137 1.9008 6.7795 3.6328 7.0351 3.8489 0.73018 0.61748-5.6356 13.385-6.6737 13.385-0.5107 0-2.9838-1.0475-5.4957-2.3278-16.931-8.6291-33.395-23.655-43.564-39.759l-6.3691-10.086-3.5326 6.6118c-4.6798 8.7588-11.931 17.566-20.842 25.313-7.6806 6.6781-27.288 20.248-29.257 20.248-0.63788 0-2.6661-2.4481-4.5072-5.4403zm50.208-79.445c0.35976-1.3424 0.66077-7.6885 0.66892-14.102l0.0148-11.662h-32.544v28.205h15.603c15.264 0 15.617-0.0531 16.257-2.4408zm48.415-11.662v-14.102h-32.544v28.205h32.544zm-20.83-69.243c-3.8448-4.0757-9.5982-10.544-12.785-14.373s-6.122-6.9632-6.522-6.9632c-0.39992 0-3.3348 3.1334-6.522 6.9632s-8.9406 10.298-12.785 14.373l-6.9905 7.4103h52.596z" stroke-width="1.0848"/>
</svg>
