<?xml version="1.0" encoding="UTF-8"?>

<svg width="1024" height="1024" version="1.1" viewBox="0 0 270.93 270.93" xmlns="http://www.w3.org/2000/svg">
    <path d="m90.225 142.38c0-37.886-0.25383-68.884-0.56407-68.884-0.31024 0-4.938 2.1967-10.284 4.8816-5.3459 2.6849-10.128 4.8816-10.627 4.8816-1.0357 0-7.3611-12.765-6.6521-13.424 0.25554-0.23771 7.5429-3.9666 16.194-8.2865 8.6512-4.3199 19.635-10.05 24.408-12.733 16.107-9.0548 42.235-27.062 53.697-37.008l11.39-9.8837 10.361 11.367-4.638 4.2323c-6.8406 6.2423-24.689 20.402-29.341 23.277l-4.0426 2.4984 0.64107 6.1496c1.9817 19.01 6.7242 44.078 9.0433 47.801 1.595 2.5608 28.275-18.452 41.299-32.526l5.9664-6.4476 11.814 10.517-9.7903 9.7903c-9.8511 9.8511-26.041 23.278-37.588 31.173-5.0681 3.4652-6.1043 4.6761-5.5692 6.5088 0.36153 1.2383 3.7388 8.6293 7.5052 16.424 8.9501 18.524 21.828 37.638 34.081 50.585 5.419 5.726 9.8528 11.131 9.8528 12.012 0 0.88063-2.2857 3.708-5.0792 6.283l-5.0792 4.6819-5.3564-5.8997c-18.812-20.72-28.698-34.438-39.094-54.246-12.365-23.559-21.588-52.463-25.386-79.556l-1.8532-13.22-20.122 11.719v146.22h-15.187z" stroke-width="1.0848"/>
</svg>
