<?xml version="1.0" encoding="UTF-8"?>

<svg width="1024" height="1024" version="1.1" viewBox="0 0 270.93 270.93" xmlns="http://www.w3.org/2000/svg">
    <path d="m38.252 210.64c-3.5798-1.2278-6.6321-2.3296-6.7828-2.4484-0.1507-0.11874 0.73678-3.1029 1.9722-6.6314 4.2774-12.217 10.692-39.257 12.872-54.262 3.2763-22.548 4.378-43.655 4.3966-84.227l0.01678-36.612h86.783v-21.696h15.187v21.696h86.783v15.187h-173.57v23.865h36.883v-21.696h15.187v21.696h62.918v-21.696h15.187v21.696h43.392v15.187h-43.392v30.374h-93.292v-30.374h-36.541l-0.69715 21.425c-0.96607 29.689-3.4208 49.91-8.9879 74.037-3.0553 13.241-10.247 36.922-11.175 36.797-0.34979-0.0471-3.5649-1.0902-7.1447-2.3181zm142.65-122.35v-7.5935h-62.918v15.187h62.918z" stroke-width="1.0848"/>
</svg>
