<?xml version="1.0" encoding="UTF-8"?>

<svg width="1024" height="1024" version="1.1" viewBox="0 0 270.93 270.93" xmlns="http://www.w3.org/2000/svg">
    <path d="m111.88 211.9-14.102-1.2536 0.38165-7.0511c0.43962-8.1221 0.76649-8.9557 3.2352-8.2501 4.0774 1.1653 41.75 3.0327 47.27 2.3431 8.3324-1.0411 12.437-4.1296 16.657-12.534 5.4034-10.762 10.854-40.656 13.895-76.207l0.71906-8.4071h-49.52c-38.648 0-49.62 0.29769-49.978 1.356-0.25194 0.74579-1.2357 4.1219-2.1861 7.5025l-1.728 6.1465-7.1466-2.0438c-3.9306-1.1241-7.2626-2.1814-7.4043-2.3498-0.38095-0.45237 29.577-104 30.297-104.72 0.64175-0.64175 11.559 1.7006 13.491 2.8945 0.71057 0.43916-0.23444 5.3549-2.6223 13.641-2.0533 7.1247-3.7332 13.338-3.7332 13.806 0 0.4688 24.652 0.85236 54.782 0.85236h54.782v15.187h-114.47l-4.2486 14.916c-2.3368 8.2037-4.4593 15.526-4.7167 16.272-0.37047 1.0733 11.192 1.356 55.464 1.356h55.932l-0.52119 5.1528c-0.28665 2.834-1.4927 15.16-2.68 27.391-6.0011 61.817-13.228 83.079-31.236 91.894-5.7445 2.8122-7.1199 3.0176-21.328 3.1843-8.3529 0.0981-21.533-0.38591-29.289-1.0754z" stroke-width="1.0848"/>
</svg>
