<?xml version="1.0" encoding="UTF-8"?>

<svg width="1024" height="1024" version="1.1" viewBox="0 0 270.93 270.93" xmlns="http://www.w3.org/2000/svg">
    <path d="m67.15 177.93v-7.5935h136.68v15.187h-136.68zm-24.253-3.5144-4.9409-5.7063 9.0929-8.6783c11.287-10.772 19.49-20.659 28.286-34.091 6.4926-9.9146 16.341-28.383 21.012-39.404l2.1841-5.1528h-53.078v-15.187h63.635l7.2538 10.101-2.6029 7.696c-3.9115 11.565-17.178 37.674-25.739 50.655-10.832 16.425-23.819 31.666-35.118 41.211l-5.0455 4.2629zm173.41-0.0111c-16.665-12.453-33.462-30.602-46.433-50.172-6.3028-9.5092-20.279-36.609-20.281-39.324-1e-3 -1.8055-1.1829-1.7095-4.0986 0.33271-2.3773 1.6651-2.4113 2.0556-2.4348 27.933-0.0266 29.27-0.4562 31.439-7.6532 38.636-5.9877 5.9877-10.904 7.626-22.968 7.6532l-10.577 0.0238v-15.187h9.3292c9.1633 0 9.3948-0.0656 13.018-3.6883l3.6883-3.6883v-66.389h6.1627c5.799 0 6.6152-0.34827 13.831-5.9024 4.2176-3.2463 11.317-9.5923 15.777-14.102l8.1088-8.1999h-95.95v-15.207l112.28 0.56192 6.1238 11.427-5.3855 6.7615c-2.962 3.7188-10.292 11.52-16.29 17.336l-10.904 10.575 3.0308 7.3243c1.6669 4.0284 4.7329 10.691 6.8133 14.805l3.7825 7.4808 10.057-11.278c5.5316-6.2026 13.761-16.245 18.288-22.317l8.2305-11.04 12.518 8.7812-3.4042 4.9479c-5.6674 8.2373-19.612 25.147-28.944 35.099l-8.807 9.3921 6.6145 8.921c9.0243 12.171 22.778 26.211 33.896 34.602l9.2525 6.9827-4.4234 6.306c-2.4329 3.4683-4.4747 6.3013-4.5374 6.2956-0.0627-5e-3 -3.5311-2.5638-7.7076-5.6847z" stroke-width="1.0848"/>
</svg>
