<?xml version="1.0" encoding="UTF-8"?>

<svg width="1024" height="1024" version="1.1" viewBox="0 0 270.93 270.93" xmlns="http://www.w3.org/2000/svg">
    <path d="m37.928 172.78c-1.8411-2.9922-3.3474-5.847-3.3474-6.3441s5.0036-4.1234 11.119-8.0584c13.192-8.4883 26.022-18.692 34.951-27.795l6.4748-6.6018h-50.375v-15.187h62.806l5.4797-8.9042c3.0138-4.8973 5.4797-9.2907 5.4797-9.7631s-13.668-0.85894-30.374-0.85894h-30.374v-15.136l36.908-0.59363-7.0636-11.872c-3.885-6.5298-7.0549-12.144-7.0441-12.475 0.0272-0.84108 10.57-7.654 11.845-7.654 1.3284 0 10.313 14.588 15.241 24.747l3.7825 7.7971h14.795l2.0903-4.7254c1.1497-2.599 3.7235-10.407 5.7197-17.352 1.9962-6.9445 3.9192-12.916 4.2733-13.27 1.0243-1.0243 12.912 1.9773 13.457 3.3979 0.56777 1.4796-2.8543 15.401-6.0956 24.797-1.2156 3.5241-2.2102 6.575-2.2102 6.7799 0 0.20492 5.0341 0.37257 11.187 0.37257h11.187l6.5219-10.034c3.5871-5.5189 8.1078-12.841 10.046-16.272s3.9327-6.2376 4.4318-6.2376 3.619 1.5574 6.933 3.4608l6.0254 3.4608-3.4333 6.0311c-1.8883 3.3171-5.2774 8.96-7.5312 12.54l-4.098 6.5088 44.429 0.58641v15.143h-30.374c-16.706 0-30.374 0.38652-30.374 0.85894s2.4658 4.8658 5.4797 9.7631l5.4797 8.9042h62.806v15.187h-50.375l6.4748 6.6018c8.9281 9.1032 21.758 19.307 34.951 27.795 6.1155 3.935 11.119 7.5612 11.119 8.0584 0 1.5935-6.6575 11.784-7.6984 11.784-1.639 0-18.218-10.683-27.557-17.758-9.8541-7.4644-27.421-24.189-33.086-31.5l-3.7968-4.8997h-57.494l-3.7968 4.8997c-5.6648 7.3104-23.232 24.035-33.086 31.5-9.3395 7.0746-25.918 17.758-27.557 17.758-0.55198 0-2.5099-2.4481-4.351-5.4402zm109.72-73.728-5.1325-9.7411h-14.102l-10.265 19.482h34.632z" stroke-width="1.0848"/>
</svg>
