<?xml version="1.0" encoding="UTF-8"?>

<svg width="1024" height="1024" version="1.1" viewBox="0 0 270.93 270.93" xmlns="http://www.w3.org/2000/svg">
    <path d="m43.527 114.14c-1.8726-4.4612-3.4048-8.3869-3.4048-8.724 0-0.33702 3.6908-0.4702 8.2019-0.29595l8.2019 0.31683 7.3043 16.814h-16.898zm86.341 6.2128c-0.29964-1.0441-2.0604-5.9461-3.9128-10.893l-3.368-8.995 16.554 0.63328 3.5762 9.2207c1.9669 5.0714 3.6073 9.8309 3.6452 10.577 0.0494 0.96859-2.2192 1.356-7.9404 1.356-6.6973 0-8.0987-0.311-8.5542-1.8984zm75.428 0.59045c5.0946-12.898 10.962-27.51 11.146-27.759 0.1302-0.17579 3.4165 0.95334 7.303 2.5092l7.0663 2.8288-9.3148 23.186-8.3773 0.31925c-6.5116 0.24815-8.2538 7e-3 -7.8228-1.0848z" stroke-width="1.0848"/>
</svg>
