<?xml version="1.0" encoding="UTF-8"?>

<svg width="1024" height="1024" version="1.1" viewBox="0 0 270.93 270.93" xmlns="http://www.w3.org/2000/svg">
    <path d="m221.28 158.2c-34.923-11.611-58.514-25.884-80.301-48.582-10.526-10.966-24.381-29.051-24.381-31.823 0-1.3871 9.5835-8.1102 11.561-8.1102 0.58597 0 3.9381 4.2291 7.4492 9.398 6.3672 9.3736 23.649 28.57 25.72 28.57 1.7121 0 22.045-17.844 32.901-28.875l9.8321-9.9896 11.395 10.117-6.9645 7.5935c-3.8305 4.1764-13.112 12.929-20.626 19.45-7.5138 6.521-13.429 12.232-13.145 12.692 0.90431 1.4632 18.558 11.773 26.188 15.293 4.0447 1.8662 14.502 5.8729 23.238 8.9037l15.884 5.5106-2.3236 7.2709-2.3237 7.2709zm-189.17-3.1033c-0.665-3.8187-1.2091-7.2116-1.2091-7.5398s4.7595-1.4312 10.577-2.4513c5.8172-1.02 13.872-2.5813 17.899-3.4694l7.3223-1.6148v-68.168h15.187v32.001c0 26.281 0.26411 32.001 1.4774 32.001 2.0096 0 29.709-7.916 39.657-11.333 4.4263-1.5205 8.1397-2.6436 8.252-2.4957 0.11227 0.14788 1.2182 3.3198 2.4577 7.0487 2.7251 8.1987 4.2234 7.0149-17.36 13.716-24.849 7.7146-54.372 14.679-78.564 18.533l-4.4861 0.71466z" stroke-width="1.0848"/>
</svg>
