<?xml version="1.0" encoding="UTF-8"?>

<svg width="1024" height="1024" version="1.1" viewBox="0 0 270.93 270.93" xmlns="http://www.w3.org/2000/svg">
    <path d="m70.871 202.57c-7.9905-1.7344-15.415-5.7644-18.427-10.002-3.8791-5.4576-4.5209-10.84-4.5271-37.964l-0.0061-26.306h15.187v27.323l5.6952-0.74327c15.024-1.9608 37.213-7.9674 53.568-14.501l10.706-4.2771 2.4082 5.3849c1.3245 2.9617 2.5449 6.2088 2.712 7.2158 0.65096 3.924-37.105 16.375-62.551 20.628-6.8925 1.152-12.057 2.5462-12.317 3.3248-0.24582 0.73748-0.11558 3.5506 0.28943 6.2514 0.68173 4.5461 1.1128 5.0846 5.8082 7.2545 4.6904 2.1677 6.785 2.3433 27.852 2.3356 31.172-0.0114 34.905-1.3248 37.567-13.218 0.72085-3.2211 1.7109-6.104 2.2002-6.4063 1.059-0.65448 13.806 1.7321 14.386 2.6935 0.95134 1.5768-4.5919 17.361-7.3815 21.018-3.7973 4.9786-12.05 9.058-21.279 10.518-10.204 1.6149-43.576 1.273-51.89-0.53168zm86.617-4.5236c-3.7469-8.4668-3.6655-8.657 5.4111-12.643 17.626-7.7396 38.393-22.685 55.412-39.877l10.393-10.499 11.676 10.294-11.349 11.314c-17.702 17.648-35.17 30.498-54.741 40.268-14.598 7.2876-14.097 7.2535-16.801 1.1426zm-0.54926-57.802c-1.7077-3.5729-2.8958-6.6872-2.6402-6.9206 0.25555-0.23349 3.0437-1.7201 6.1959-3.3036 14.04-7.0528 30.036-19.232 43.641-33.228l9.2346-9.4999 11.785 10.336-11.33 11.293c-13.152 13.108-29.488 25.718-42.523 32.824-5.0404 2.7475-9.6353 4.9955-10.211 4.9955-0.57557 0-2.4437-2.9232-4.1514-6.4961zm-108.29-16.997c-0.40364-0.40364-0.7339-16.518-0.7339-35.809v-35.075h7.5935c6.9429 0 7.5935 0.19138 7.5935 2.2336 0 1.2285 0.48993 1.9308 1.0887 1.5607 1.3133-0.81164 17.366 12.074 17.32 13.903-0.01781 0.70747-1.9425 3.483-4.2771 6.1679-4.5454 5.2273-4.045 5.2182-10.766 0.19733l-3.3661-2.5146v18.737l2.9832-2.1291c5.8121-4.148 15.2-11.635 19.792-15.783l4.6534-4.2044-5.8493-5.3007c-3.2171-2.9154-9.3884-8.2894-13.714-11.942-4.3256-3.6528-7.8647-7.0985-7.8647-7.657s2.0168-3.4072 4.4818-6.3305l4.4818-5.3151 7.3637 6.2053c4.05 3.4129 10.782 9.2724 14.959 13.021l7.5953 6.8159 22.195-25.944 5.7419 4.5288c3.158 2.4909 5.7692 4.7939 5.8024 5.1179 0.0333 0.32398-5.0805 6.5751-11.364 13.891l-11.425 13.302 10.611 11.457c9.9978 10.795 10.632 11.284 10.97 8.4588 0.29852-2.4958-1.0208-4.3859-7.8732-11.279l-8.2318-8.2804 10.822-10.659 5.4669 5.1359v-13.396h15.217l-0.28603 35.527-0.28602 35.527-49.98 0.28189c-27.489 0.15505-50.31-0.0484-50.714-0.452zm46.183-19.965c-2.5357-2.3932-4.6104-4.6812-4.6104-5.0846 0-1.2165 9.0421-10.036 10.289-10.036 0.63757 0 4.5327 3.3995 8.6559 7.5546 7.3819 7.4389 7.4661 7.5884 5.4979 9.7631-1.998 2.2078-1.9948 2.2086 9.0173 2.2086h11.016v-11.3l-9.9628 9.6724-23.123-24.416-6.5087 5.6107c-7.4659 6.4357-23.161 18.264-24.231 18.261-0.39581-1e-3 -2.1069-2.1978-3.8024-4.8816-1.6955-2.6838-3.282-4.8796-3.5256-4.8796-0.24353 0-0.44279 2.6849-0.44279 5.9664v5.9664l36.341-0.0542-4.6104-4.3512zm62.064-19.569c-1.7678-3.7127-2.7261-6.9223-2.1294-7.1324 0.59664-0.21013 4.6621-2.3655 9.0343-4.7896 9.0922-5.0412 21.936-16.738 27.922-25.43 2.2464-3.2617 4.3457-5.9304 4.665-5.9304 1.3655 0 12.076 7.0565 12.076 7.9562 0 2.3994-10.353 15.144-18.706 23.028-8.1422 7.6845-22.19 17.099-27.642 18.524-1.5837 0.41415-2.6818-0.89554-5.2198-6.2259zm-126.34-38.943v-28.205h206.11v56.409h-15.187v-41.222h-118.69l4.565 4.6514c2.5108 2.5583 4.565 5.1415 4.565 5.7405s-2.1744 3.2231-4.832 5.8314l-4.8321 4.7423-16.376-14.657 4.4923-6.3089h-44.624v41.222h-15.187z" stroke-width="1.0848"/>
</svg>
