<?xml version="1.0" encoding="UTF-8"?>

<svg width="1024" height="1024" version="1.1" viewBox="0 0 270.93 270.93" xmlns="http://www.w3.org/2000/svg">
    <path d="m75.803 183.93v-29.289h15.187v30.374h36.883v-41.222h-56.409v-15.187h56.409v-28.205h-52.07v-15.187h8.7514c10.325 0 10.215 2.5157 0.92906-21.122-3.5089-8.9324-6.0241-16.57-5.5894-16.973 2.034-1.8844 12.387-5.5192 13.22-4.6413 1.2454 1.3127 12.966 31.132 13.722 34.91 0.56544 2.8272 0.22741 3.1433-5.7239 5.3529l-6.3249 2.3483 62.87-0.41678 8.9193-17.357c4.9056-9.5462 10.454-21.262 12.329-26.035 1.8755-4.7731 3.7476-9.0373 4.1604-9.4761 0.73996-0.78658 11.813 2.9083 13.447 4.4868 1.0547 1.0193-5.9926 18.049-14.455 34.931-3.5496 7.0811-6.4539 13.126-6.4539 13.434s4.3934 0.55908 9.7631 0.55908h9.7631v15.187h-52.07v28.205h56.409v15.187h-56.409v41.222h36.883v-30.374h15.187v58.579h-15.187v-13.018h-88.953v13.018h-15.187zm58.184-101.7c-0.29744-1.0441-1.103-4.7333-1.7901-8.1982-1.2725-6.4164-5.8953-20.677-9.1692-28.285-0.99657-2.3159-1.4124-4.5548-0.92415-4.9754 2.1374-1.841 12.618-5.547 13.38-4.7313 2.5366 2.7147 11.181 30.045 13.376 42.29l0.61351 3.4225-6.8211 1.1878c-8.5598 1.4906-8.0256 1.5344-8.6651-0.71055zm-58.184-50.017v-7.4391l12.204-0.75469c32.106-1.9854 84.625-11.431 102.85-18.497 1.2983-0.50347 2.1461 0.79614 3.6651 5.6183 1.0868 3.4503 2.1825 6.8129 2.4348 7.4724 0.59658 1.5595-18.408 7.1044-38.532 11.242-25.603 5.2645-60.918 9.7937-76.38 9.796l-6.2376 9.06e-4z" stroke-width="1.0848"/>
</svg>
