<?xml version="1.0" encoding="UTF-8"?>

<svg width="1024" height="1024" version="1.1" viewBox="0 0 270.93 270.93" xmlns="http://www.w3.org/2000/svg">
    <path d="m37.402 206.66c-4.0536-4.5384-7.2248-8.6457-7.0471-9.1272s8.7847-8.545 19.127-17.919c15.602-14.141 18.698-17.436 18.185-19.349-0.3403-1.268-0.62539-12.923-0.63354-25.9l-0.01481-23.594h-32.544v-23.901l56.952 0.57842 0.5424 38.51c0.59767 42.435 0.55809 42.187 7.6994 48.196 4.9451 4.1611 10.832 6.936 20.322 9.5799 7.9053 2.2023 11.113 2.3375 64.457 2.7153l56.138 0.39759v23.725l-52.884-7e-3c-58.316-8e-3 -66.889-0.66205-82.305-6.2884-10.219-3.7294-16.639-7.5332-22.913-13.575l-4.6037-4.4338-3.5323 3.2815c-13.666 12.696-28.012 25.362-28.725 25.362-0.46756 0-4.1667-3.7132-8.2202-8.2516zm31.558-155.28c-7.1439-9.2748-14.402-17.617-27.698-31.835l-3.6483-3.9013 17.798-16.045 9.6747 10.297c8.7548 9.3175 20.493 23.307 28.341 33.778l2.9647 3.9553-9.2808 7.1638c-5.1044 3.9401-9.4439 7.1638-9.6433 7.1638-0.19936 0-4.0285-4.7595-8.5092-10.577z" stroke-width="1.0848"/>
</svg>
