<?xml version="1.0" encoding="UTF-8"?>

<svg width="1024" height="1024" version="1.1" viewBox="0 0 270.93 270.93" xmlns="http://www.w3.org/2000/svg">
    <path d="m202.65 156.43c-6.2032-8.3594-7.3545-9.4016-10.238-9.2686-1.7867 0.0824-14.476 1.4211-28.199 2.9748-29.582 3.3493-72.258 6.81-96.818 7.851l-17.628 0.74722v-15.291l33.138-1.5531 14.347-27.932c7.8911-15.363 14.347-28.245 14.347-28.627 0-0.38201-15.865-0.69457-35.256-0.69457h-35.256v-15.187h86.783v-21.696h15.187v21.696h86.783v15.187l-100.34 0.02798-13.942 27.176c-7.6681 14.947-13.635 27.482-13.26 27.857 1.0683 1.0683 60.71-4.2608 76.846-6.8663l4.0818-0.6591-3.1683-3.9703c-1.7426-2.1837-7.6336-8.8519-13.091-14.818l-9.923-10.848 11.51-10.366 5.2166 5.7252c17.605 19.322 37.451 43.241 45.088 54.339l3.3175 4.8218-12.535 8.7928z" stroke-width="1.0848"/>
</svg>
