<?xml version="1.0" encoding="UTF-8"?>

<svg width="1024" height="1024" version="1.1" viewBox="0 0 270.93 270.93" xmlns="http://www.w3.org/2000/svg">
    <path d="m128.75 116.42v-50.985h15.187v101.97h-15.187zm-64.214 29.549c-8.2038-16.837-16.653-30.307-27.168-43.314l-7.1816-8.8829 11.603-9.9125 6.1476 7.3304c9.5772 11.42 22.286 31.219 29.502 45.962 9.2553 18.91 9.1472 17.472 1.5694 20.873-3.5178 1.5787-6.5791 2.8652-6.8028 2.8589-0.22371-7e-3 -3.6747-6.7184-7.6689-14.916zm127.39 10.827c-2.5449-2.2196-4.6196-4.3464-4.6104-4.7261 0.01-0.3798 3.9256-5.9317 8.7031-12.338 10.503-14.083 17.296-25.199 25.515-41.754 3.4066-6.8613 6.3426-12.641 6.5244-12.844 0.18181-0.20305 3.307 0.96657 6.945 2.5992 7.8632 3.5288 7.98 2.0844-1.7178 21.245-10.157 20.068-31.918 51.97-35.392 51.886-0.73707-0.0178-3.4224-1.8484-5.9673-4.068z" stroke-width="1.0848"/>
</svg>
