<?xml version="1.0" encoding="UTF-8"?>

<svg width="1024" height="1024" version="1.1" viewBox="0 0 270.93 270.93" xmlns="http://www.w3.org/2000/svg">
    <path d="m32.411 123.86v-22.781h25.493c14.021 0 25.493-0.17871 25.493-0.39715 0-0.21843-2.2439-5.1341-4.9865-10.924-2.7426-5.7896-4.8172-10.678-4.6104-10.863 0.91664-0.81892 11.783-6.021 12.577-6.021 0.48564 0 4.026 6.346 7.8675 14.102l6.9845 14.102h15.492c8.5204 0 15.492-0.20963 15.492-0.46584 0-0.25622-2.2032-5.2127-4.8959-11.014s-4.7674-10.673-4.6104-10.824c1.4592-1.4085 13.337-5.7549 13.969-5.1118 0.45354 0.4613 3.4436 6.6966 6.6445 13.856l5.8198 13.018h29.082l6.0333-13.218c3.3183-7.2698 6.33-13.514 6.6926-13.877 0.53985-0.53986 12.431 4.0642 13.653 5.2863 0.19638 0.19638-1.8324 5.1836-4.5084 11.083l-4.8655 10.726 43.296 0.58732v45.516h-15.187v-30.374h-175.74v30.374h-15.187z" stroke-width="1.0848"/>
</svg>
