<?xml version="1.0" encoding="UTF-8"?>

<svg width="1024" height="1024" version="1.1" viewBox="0 0 270.93 270.93" xmlns="http://www.w3.org/2000/svg">
    <path d="m123.85 183.14v-27.73l-7.3223 6.2231c-10.451 8.8818-24.754 18.044-40.408 25.885-19.068 9.5501-17.575 9.437-21.093 1.5968-1.6326-3.6379-2.8022-6.7517-2.5992-6.9196s6.4711-3.2721 13.929-6.8983c15.714-7.6402 33.532-19.185 42.849-27.762l6.5088-5.9917-52.612-0.0996v-49.9h136.68v24.95c0 22.425-0.18049 24.95-1.7832 24.95-1.0425 0 0.30924 1.5977 3.2544 3.8465 2.7707 2.1156 5.0376 4.2959 5.0376 4.8453 0 1.2315-16.06 21.239-19.951 24.855-1.5565 1.4464-2.8299 2.9649-2.8299 3.3744 0 1.2986 12.085 7.1791 23.323 11.349 5.9664 2.2137 11.184 4.2288 11.595 4.4781 0.6748 0.40927-2.4513 10.916-3.9873 13.401-0.88018 1.4242-17.378-4.5321-30.068-10.855-15.121-7.5348-22.78-13.029-34.762-24.938l-10.577-10.512v49.583h-15.187zm61.382-30.414c4.4248-5.4288 8.0452-10.188 8.0452-10.577s-11.007-0.70622-24.46-0.70622h-24.46l3.5157 5.1528c1.9336 2.834 7.5636 9.2829 12.511 14.331l8.9953 9.178 3.9038-3.7541c2.1471-2.0648 7.5241-8.1958 11.949-13.625zm-0.63318-36.233v-9.7631h-106.31v19.526h106.31zm-130.18-47.731v-7.5935h69.427v-19.526h-60.748v-15.187h60.748v-21.696h15.187v21.696h60.748v15.187h-60.748v19.526h69.427v15.187h-154.04z" stroke-width="1.0848"/>
</svg>
